<svg width="64" height="50" viewBox="0 0 64 50" fill="none" xmlns="http://www.w3.org/2000/svg">
<path d="M59.2373 1.47879C60.3264 0.725628 61.7997 0.866674 62.7256 1.81277C63.5935 2.69965 63.743 4.05219 63.1182 5.10086L62.9824 5.30692C62.2057 6.37893 60.7691 6.73482 59.582 6.14969L59.2695 5.99539L59.0176 6.23465L52.9619 11.971L52.8057 12.1194V39.4212H54.3711C55.8612 39.4212 57.0703 40.6293 57.0703 42.1194V46.3841C57.0701 47.874 55.8611 49.0823 54.3711 49.0823H3.19824C1.70831 49.0823 0.500236 47.874 0.5 46.3841V42.1194C0.5 40.6293 1.70816 39.4212 3.19824 39.4212H4.76465V6.93777C4.76465 5.44765 5.97277 4.23953 7.46289 4.23953H50.1074C51.5974 4.23971 52.8057 5.44776 52.8057 6.93777V10.5598L53.6494 9.76004L58.2119 5.43484L58.4736 5.1868L58.3213 4.86063C57.7621 3.66089 58.1488 2.23237 59.2373 1.47879ZM3.19824 40.553C2.33338 40.5531 1.63184 41.2545 1.63184 42.1194V46.3841C1.63207 47.2487 2.33353 47.9494 3.19824 47.9495H54.3711C55.2358 47.9495 55.9373 47.2488 55.9375 46.3841V42.1194C55.9375 41.2545 55.236 40.553 54.3711 40.553H35.748V42.1194C35.7479 43.6093 34.5396 44.8174 33.0498 44.8177H24.5205C23.0305 44.8177 21.8224 43.6094 21.8223 42.1194V40.553H3.19824ZM22.9541 42.1194C22.9542 42.9842 23.6557 43.6848 24.5205 43.6848H33.0498C33.9144 43.6846 34.6151 42.9841 34.6152 42.1194V40.553H22.9541V42.1194ZM7.46289 5.37137C6.59799 5.37137 5.89648 6.07288 5.89648 6.93777V39.4212H51.6729V13.1907L50.8291 13.9905L48.6973 16.011L48.541 16.1585V35.7229C48.5408 36.0354 48.2871 36.2884 47.9746 36.2884H9.59473C9.28236 36.2882 9.02951 36.0353 9.0293 35.7229V9.06961C9.02941 8.75718 9.2823 8.50432 9.59473 8.50418H47.9746C48.2871 8.50418 48.5409 8.7571 48.541 9.06961V14.6057L49.3857 13.803L51.5176 11.7776L51.6729 11.6292V6.93777C51.6729 6.07299 50.9722 5.37155 50.1074 5.37137H7.46289ZM10.1611 35.1565H47.4092V17.2317L46.5645 18.0315L39.835 24.4065C39.635 24.5957 39.327 24.6128 39.1064 24.4475L31.3623 18.6448L30.9941 18.3694L30.6885 18.7132L22.8105 27.5755C22.6402 27.7665 22.3633 27.8202 22.1357 27.7063L18.4307 25.847L18.1133 25.6878L17.8584 25.9339C16.9842 26.78 15.6515 26.9364 14.6055 26.3157H14.6045C13.5582 25.6947 13.0574 24.4506 13.3809 23.2776C13.7045 22.1047 14.7731 21.2936 15.9902 21.2971H15.9912C17.4771 21.2971 18.6826 22.4984 18.6895 23.9827C18.6849 24.0884 18.6741 24.1938 18.6562 24.2981L18.5938 24.6634L18.9258 24.8294L21.9111 26.3225L22.2539 26.4934L22.5088 26.2073L30.4941 17.222C30.6898 17.0025 31.0211 16.9694 31.2568 17.1458L39.0664 22.9993L39.4033 23.2532L39.71 22.9632L47.2529 15.8196L47.4092 15.6721V9.63602H10.1611V35.1565ZM15.9912 22.429C15.1265 22.4292 14.4258 23.1306 14.4258 23.9954C14.4258 24.8601 15.1265 25.5616 15.9912 25.5618C16.8561 25.5618 17.5576 24.8603 17.5576 23.9954C17.5576 23.1305 16.8561 22.429 15.9912 22.429ZM60.7686 2.17313C59.9037 2.17313 59.2021 2.87464 59.2021 3.73953C59.2023 4.60431 59.9037 5.30496 60.7686 5.30496C61.6332 5.30476 62.3338 4.60419 62.334 3.73953C62.334 2.87476 61.6333 2.17333 60.7686 2.17313Z" fill="#2E2F42" stroke="black"/>
</svg>
